<svg width="984" height="144" viewBox="0 0 984 144" fill="none" xmlns="http://www.w3.org/2000/svg">
<path d="M145.469 130.018L130.915 106.282C130.915 106.282 76.3038 59.2867 14.1701 107.157L0 131C0 131 27.6901 105.207 75.0301 106.826C122.37 108.444 145.469 130.018 145.469 130.018Z" fill="white"/>
<path d="M72.9869 12L23.3516 92.9608C23.3516 92.9608 38.1055 82.6252 59.4934 79.6001L72.7348 57.907L86.3609 79.6001C86.3609 79.6001 104.047 80.7676 122.118 92.4964C103.954 61.9272 72.9869 12 72.9869 12Z" fill="white"/>
<path d="M300.158 120L289.414 96.064H231.478L220.734 120H214.206L256.91 24.8H263.982L306.686 120H300.158ZM260.446 31.192L233.926 90.216H286.966L260.446 31.192ZM356.099 24.8C365.528 24.8 373.915 26.84 381.259 30.92C388.603 34.9093 394.315 40.5307 398.395 47.784C402.475 54.9467 404.515 63.152 404.515 72.4C404.515 81.648 402.475 89.8987 398.395 97.152C394.315 104.315 388.603 109.936 381.259 114.016C373.915 118.005 365.528 120 356.099 120H324.275V24.8H356.099ZM356.099 114.152C364.35 114.152 371.694 112.384 378.131 108.848C384.568 105.312 389.555 100.371 393.091 94.024C396.718 87.6773 398.531 80.4693 398.531 72.4C398.531 64.3307 396.718 57.1227 393.091 50.776C389.464 44.4293 384.432 39.488 377.995 35.952C371.558 32.416 364.259 30.648 356.099 30.648H330.259V114.152H356.099ZM497.518 120L486.774 96.064H428.838L418.094 120H411.566L454.27 24.8H461.342L504.046 120H497.518ZM457.806 31.192L431.286 90.216H484.326L457.806 31.192ZM610.85 24.8H617.378V120H611.53V33.912L570.322 90.896H568.826L527.618 34.048V120H521.634V24.8H528.162L569.506 82.056L610.85 24.8ZM644.884 24.8H650.868V120H644.884V24.8ZM747.441 24.8H753.289V120H747.033L684.337 33.912V120H678.353V24.8H684.881L747.441 110.616V24.8ZM812.576 24.8C822.005 24.8 830.392 26.84 837.736 30.92C845.08 34.9093 850.792 40.5307 854.872 47.784C858.952 54.9467 860.992 63.152 860.992 72.4C860.992 81.648 858.952 89.8987 854.872 97.152C850.792 104.315 845.08 109.936 837.736 114.016C830.392 118.005 822.005 120 812.576 120H780.752V24.8H812.576ZM812.576 114.152C820.826 114.152 828.17 112.384 834.608 108.848C841.045 105.312 846.032 100.371 849.568 94.024C853.194 87.6773 855.008 80.4693 855.008 72.4C855.008 64.3307 853.194 57.1227 849.568 50.776C845.941 44.4293 840.909 39.488 834.472 35.952C828.034 32.416 820.736 30.648 812.576 30.648H786.736V114.152H812.576ZM913.772 121.496C905.975 121.496 898.586 119.909 891.604 116.736C884.623 113.472 879.183 109.165 875.284 103.816L879.364 99.736C882.447 104.451 887.207 108.304 893.644 111.296C900.082 114.288 906.791 115.784 913.772 115.784C923.383 115.784 930.954 114.016 936.484 110.48C942.106 106.853 944.916 101.957 944.916 95.792C944.916 91.8933 943.919 88.6747 941.924 86.136C940.02 83.5973 936.756 81.4213 932.132 79.608C927.599 77.7947 921.071 76.072 912.548 74.44C903.844 72.7173 896.954 70.7227 891.876 68.456C886.89 66.1893 883.263 63.424 880.996 60.16C878.73 56.896 877.596 52.816 877.596 47.92C877.596 43.024 879.047 38.7173 881.948 35C884.94 31.192 889.111 28.2907 894.46 26.296C899.9 24.2107 906.156 23.168 913.228 23.168C920.119 23.168 926.466 24.3467 932.268 26.704C938.071 28.9707 942.967 32.3253 946.956 36.768L943.148 40.984C939.703 37.0853 935.351 34.0933 930.092 32.008C924.924 29.832 919.258 28.744 913.092 28.744C904.116 28.744 896.908 30.512 891.468 34.048C886.119 37.4933 883.444 42.1173 883.444 47.92C883.444 51.728 884.396 54.9013 886.3 57.44C888.204 59.888 891.332 62.0187 895.684 63.832C900.036 65.5547 906.066 67.1867 913.772 68.728C923.292 70.632 930.682 72.7173 935.94 74.984C941.29 77.2507 945.098 80.016 947.364 83.28C949.722 86.544 950.9 90.6693 950.9 95.656C950.9 103.635 947.546 109.936 940.836 114.56C934.218 119.184 925.196 121.496 913.772 121.496Z" fill="white"/>
</svg>
