<svg width="1851" height="309" viewBox="0 0 1851 309" fill="none" xmlns="http://www.w3.org/2000/svg">
<g clip-path="url(#clip0_330_3)">
<path d="M248.676 146.35C247.976 147.517 246.926 148.333 245.526 148.8C244.36 149.033 243.193 149.5 242.026 150.2C240.86 150.9 239.693 151.833 238.526 153C237.36 154.167 236.193 155.1 235.026 155.8C238.293 168.4 240.86 179.367 242.726 188.7C244.593 198.033 245.76 205.033 246.226 209.7C246.693 214.367 247.043 219.5 247.276 225.1C247.51 230.7 247.626 235.833 247.626 240.5C247.626 244 247.393 246.8 246.926 248.9C246.693 251.233 246.226 253.45 245.526 255.55C242.726 252.05 240.393 248.317 238.526 244.35C236.893 240.383 235.143 236.417 233.276 232.45C229.31 220.55 225.46 208.067 221.726 195C218.226 181.933 214.726 168.633 211.226 155.1C204.693 154.867 197.693 154.75 190.226 154.75C182.76 154.75 175.293 154.75 167.826 154.75C160.36 154.75 153.243 154.867 146.476 155.1C139.943 155.1 134.226 155.217 129.326 155.45C128.86 156.85 128.393 158.483 127.926 160.35C126.526 163.383 125.36 166.767 124.426 170.5C123.493 174 122.676 177.85 121.976 182.05C121.276 186.017 120.46 190.217 119.526 194.65C118.593 199.083 117.426 203.517 116.026 207.95C119.06 207.95 121.976 207.017 124.776 205.15C127.81 203.05 130.843 202 133.876 202C131.776 204.1 129.91 206.433 128.276 209C126.876 211.567 125.593 214.95 124.426 219.15C124.193 220.317 123.493 221.483 122.326 222.65C121.16 224.05 120.343 225.1 119.876 225.8C119.41 226.733 118.943 227.667 118.476 228.6C118.01 229.767 117.426 230.583 116.726 231.05C115.093 231.983 113.693 232.45 112.526 232.45C111.36 232.683 110.543 232.45 110.076 231.75C108.21 228.95 106.926 225.917 106.226 222.65C105.76 219.617 105.293 216.35 104.826 212.85C104.826 206.55 105.643 198.383 107.276 188.35C108.91 178.317 111.01 167.583 113.576 156.15C111.71 155.683 109.843 154.867 107.976 153.7C106.11 152.3 104.476 151.367 103.076 150.9C100.51 149.733 98.4097 149.15 96.7764 149.15C95.143 148.917 93.393 147.983 91.5264 146.35L112.876 140.75C114.043 140.75 115.56 140.517 117.426 140.05C120.226 129.083 123.026 118.583 125.826 108.55C128.626 98.5167 131.31 90 133.876 83C135.743 77.6333 137.96 71.45 140.526 64.45C143.326 57.45 146.476 50.8 149.976 44.5C153.71 37.9667 157.793 32.3667 162.226 27.7C166.893 23.0333 171.91 20.1167 177.276 18.95C178.91 18.4833 180.543 18.1333 182.176 17.9C183.81 17.6667 185.56 17.55 187.426 17.55C189.293 17.55 190.693 18.4833 191.626 20.35C192.56 21.9833 193.96 24.0833 195.826 26.65C196.993 28.75 198.043 30.6167 198.976 32.25C200.143 33.65 201.31 36.6833 202.476 41.35C208.076 58.3833 213.326 75.5333 218.226 92.8C223.126 109.833 227.443 125.933 231.176 141.1L252.526 145.65L248.676 146.35ZM177.276 34C173.31 39.3667 169.576 45.3167 166.076 51.85C162.576 58.15 159.076 65.5 155.576 73.9C152.076 82.0667 148.576 91.5167 145.076 102.25C141.576 112.75 137.96 124.65 134.226 137.95C146.36 136.55 158.493 135.733 170.626 135.5C182.76 135.267 194.776 135.733 206.676 136.9C201.776 118 196.993 99.6833 192.326 81.95C187.66 63.9833 182.643 48 177.276 34ZM369.776 65.15C372.81 68.1833 375.376 71.8 377.476 76C379.576 80.2 381.21 84.75 382.376 89.65C383.543 94.55 384.01 99.5667 383.776 104.7C383.776 109.6 383.076 114.267 381.676 118.7C375.61 154.4 357.76 184.15 328.126 207.95C324.86 210.283 321.71 211.683 318.676 212.15C315.643 212.85 312.726 214.133 309.926 216C308.06 217.167 306.193 218.1 304.326 218.8C302.693 219.5 300.71 219.85 298.376 219.85C297.91 218.683 297.793 217.633 298.026 216.7C298.26 215.767 298.61 214.717 299.076 213.55C299.31 212.617 299.31 211.45 299.076 210.05C299.076 208.883 299.31 207.833 299.776 206.9C300.71 205.267 301.526 203.75 302.226 202.35C303.16 200.95 303.743 199.667 303.976 198.5C303.976 197.333 303.16 196.167 301.526 195C300.126 193.6 299.076 191.967 298.376 190.1C295.343 182.633 292.776 174.233 290.676 164.9C288.576 155.333 286.71 145.533 285.076 135.5C283.676 125.233 282.393 115.083 281.226 105.05C280.293 94.7833 279.476 85.2167 278.776 76.35L270.376 79.85C269.21 80.3167 268.393 79.5 267.926 77.4C267.46 75.3 267.46 73.3167 267.926 71.45L269.676 64.8C270.143 63.6333 270.376 62.35 270.376 60.95C270.376 59.3167 271.076 57.9167 272.476 56.75C274.81 54.8833 278.193 52.7833 282.626 50.45C287.293 48.1167 292.543 47.0667 298.376 47.3C304.21 44.2667 310.393 42.4 316.926 41.7C323.46 41 329.876 41.4667 336.176 43.1C342.476 44.5 348.543 47.0667 354.376 50.8C360.21 54.5333 365.343 59.3167 369.776 65.15ZM369.776 83C366.743 75.5333 361.96 70.2833 355.426 67.25C349.126 63.9833 342.243 62.1167 334.776 61.65C327.543 61.1833 320.543 61.7667 313.776 63.4C307.01 65.0333 301.876 67.0167 298.376 69.35C299.076 77.05 299.776 85.6833 300.476 95.25C301.41 104.817 302.46 114.733 303.626 125C305.026 135.033 306.66 145.183 308.526 155.45C310.626 165.717 313.193 175.283 316.226 184.15C325.093 178.317 333.143 171.783 340.376 164.55C347.61 157.083 353.676 149.15 358.576 140.75C363.476 132.117 366.86 123.017 368.726 113.45C370.826 103.65 371.176 93.5 369.776 83ZM532.835 77.4C532.835 87.6667 531.085 97.1167 527.585 105.75C525.952 110.183 523.735 114.617 520.935 119.05C518.135 123.25 514.985 127.45 511.485 131.65C508.219 135.617 504.719 139.467 500.985 143.2C497.485 146.7 494.219 149.967 491.185 153C498.185 155.1 505.885 157.433 514.285 160C522.919 162.333 531.435 165.133 539.835 168.4C548.235 171.667 556.285 175.4 563.985 179.6C571.685 183.567 578.335 188.117 583.935 193.25C585.569 194.65 586.619 196.05 587.085 197.45C587.552 198.617 587.785 200.133 587.785 202C587.785 203.867 587.785 205.033 587.785 205.5C588.019 205.967 587.669 206.9 586.735 208.3C586.035 209.467 585.569 210.75 585.335 212.15C585.335 213.55 584.869 214.483 583.935 214.95C582.769 215.417 581.602 215.183 580.435 214.25C567.135 205.617 551.385 197.8 533.185 190.8C515.219 183.8 497.252 177.733 479.285 172.6C477.419 172.6 475.669 172.95 474.035 173.65C472.402 174.35 470.419 175.167 468.085 176.1C466.219 176.8 463.652 177.617 460.385 178.55C457.352 179.483 455.719 179.483 455.485 178.55C455.485 174.817 456.535 171.433 458.635 168.4C460.735 165.367 462.602 162.217 464.235 158.95C466.102 154.983 467.269 152.417 467.735 151.25C468.435 150.083 469.369 148.8 470.535 147.4C471.469 146.233 472.519 144.833 473.685 143.2C475.085 141.333 477.069 139.117 479.635 136.55C485.469 130.95 490.369 125.7 494.335 120.8C498.535 115.667 501.919 110.767 504.485 106.1C507.285 101.2 509.619 96.4167 511.485 91.75C513.352 87.0833 515.219 82.4167 517.085 77.75C501.919 78.2167 488.269 79.5 476.135 81.6C464.002 83.4667 451.519 86.0333 438.685 89.3C440.085 98.1667 441.135 108.2 441.835 119.4C442.535 130.367 443.119 141.683 443.585 153.35C444.285 165.017 444.985 176.683 445.685 188.35C446.385 199.783 447.669 210.4 449.535 220.2C450.702 223.467 451.052 226.383 450.585 228.95C450.352 229.65 450.235 230.233 450.235 230.7C450.235 231.167 450.002 231.633 449.535 232.1C440.669 211.1 434.252 188.467 430.285 164.2C426.552 139.7 426.785 115.317 430.985 91.05C429.352 91.2833 427.135 91.75 424.335 92.45C421.535 93.15 418.502 93.9667 415.235 94.9C412.202 95.8333 409.169 96.7667 406.135 97.7C403.335 98.6333 400.885 99.3333 398.785 99.8L390.735 100.85C390.035 98.75 390.269 97.2333 391.435 96.3C392.369 95.1333 393.069 93.7333 393.535 92.1C395.169 86.5 398.552 82.3 403.685 79.5C405.785 78.3333 407.535 76.9333 408.935 75.3C410.335 73.6667 411.969 72.3833 413.835 71.45C420.135 68.8833 427.252 66.6667 435.185 64.8C443.119 62.9333 451.169 61.5333 459.335 60.6C467.735 59.4333 476.019 58.9667 484.185 59.2C492.585 59.2 500.519 60.0167 507.985 61.65C510.319 62.1167 512.535 63.05 514.635 64.45C516.735 65.6167 518.835 66.6667 520.935 67.6L526.535 71.1C531.435 71.8 533.535 73.9 532.835 77.4ZM640.731 183.1C641.198 186.133 640.964 189.283 640.031 192.55C639.331 195.583 639.564 198.383 640.731 200.95C641.431 202.817 641.664 205.617 641.431 209.35C641.431 213.083 641.198 216.233 640.731 218.8C639.331 218.8 637.931 218.217 636.531 217.05C635.364 216.117 634.081 214.833 632.681 213.2C631.048 211.333 629.181 209.583 627.081 207.95C625.214 206.083 623.814 203.75 622.881 200.95C619.848 189.05 617.514 176.567 615.881 163.5C614.248 150.2 613.081 136.783 612.381 123.25C611.681 109.717 611.214 96.4167 610.981 83.35C610.981 70.05 610.981 57.45 610.981 45.55C610.981 41.5833 611.448 39.1333 612.381 38.2C612.848 37.7333 613.431 37.7333 614.131 38.2C615.064 38.4333 616.114 38.6667 617.281 38.9C618.448 39.1333 619.498 39.6 620.431 40.3C621.364 40.7667 622.064 41.2333 622.531 41.7C623.231 42.4 623.931 42.8667 624.631 43.1C625.331 43.3333 625.798 44.0333 626.031 45.2C627.898 68.3 630.114 91.2833 632.681 114.15C635.248 137.017 637.931 160 640.731 183.1Z" fill="white"/>
<path d="M907.35 66.65C907.35 67.8167 907 68.9833 906.3 70.15C905.6 71.0833 905.017 72.25 904.55 73.65C903.617 76.2167 902.917 77.6167 902.45 77.85C902.217 78.0833 901.4 79.0167 900 80.65C899.3 81.5833 898.833 82.4 898.6 83.1C898.367 83.5667 898.017 84.0333 897.55 84.5C896.617 84.9667 895.333 84.7333 893.7 83.8C891.367 81.7 888.567 79.4833 885.3 77.15C882.033 74.8167 878.533 72.8333 874.8 71.2C871.067 69.3333 867.1 68.05 862.9 67.35C858.933 66.65 854.85 67 850.65 68.4C844.817 70.2667 838.05 73.5333 830.35 78.2C822.65 82.8667 816.117 88.5833 810.75 95.35C804.217 103.75 800.717 112.85 800.25 122.65C799.783 132.217 801.65 141.083 805.85 149.25C810.283 157.417 816.817 164.417 825.45 170.25C834.083 175.85 844.35 178.883 856.25 179.35C862.317 178.417 867.567 176.433 872 173.4C876.667 170.133 880.633 166.283 883.9 161.85C887.4 157.417 890.317 152.75 892.65 147.85C894.983 142.717 896.85 137.933 898.25 133.5C886.35 136.533 874.45 139.1 862.55 141.2C850.65 143.067 838.75 142.483 826.85 139.45C825.683 138.75 825.333 138.517 825.8 138.75C826.267 138.75 827.083 137.7 828.25 135.6C828.717 134.667 829.067 133.5 829.3 132.1C829.767 130.467 830.933 129.183 832.8 128.25C841.2 126.85 849.833 125.1 858.7 123C867.567 120.667 876.667 118.683 886 117.05C895.333 115.417 904.783 114.6 914.35 114.6C923.917 114.6 933.6 116.117 943.4 119.15C944.333 119.617 945.383 119.967 946.55 120.2C947.95 120.2 949.233 120.433 950.4 120.9C951.567 121.367 952.617 122.067 953.55 123C954.483 123.7 954.95 124.75 954.95 126.15C954.95 127.083 953.9 127.55 951.8 127.55C945.733 127.55 938.733 127.783 930.8 128.25C923.1 128.483 916.217 129.417 910.15 131.05C909.917 136.65 909.683 142.833 909.45 149.6C909.45 156.367 909.683 163.367 910.15 170.6C910.85 177.6 912.017 184.6 913.65 191.6C915.517 198.6 918.317 205.017 922.05 210.85C922.517 211.317 922.75 212.483 922.75 214.35C922.75 216.217 922.517 217.733 922.05 218.9C921.583 219.6 921.467 220.183 921.7 220.65C921.933 221.35 921.817 221.933 921.35 222.4C920.883 223.333 920.067 223.683 918.9 223.45C917.733 223.45 916.8 223.217 916.1 222.75C910.033 216.683 905.6 209.217 902.8 200.35C900.233 191.483 898.717 183.083 898.25 175.15C883.317 190.083 867.917 198.6 852.05 200.7C847.85 201.167 844.467 201.167 841.9 200.7C839.567 200.467 836.417 199.417 832.45 197.55C830.817 196.85 828.367 196.267 825.1 195.8C822.067 195.333 819.967 194.517 818.8 193.35C812.5 188.45 806.9 182.85 802 176.55C797.333 170.25 793.483 163.483 790.45 156.25C787.65 149.017 785.667 141.55 784.5 133.85C783.567 125.917 783.8 117.867 785.2 109.7C785.433 99.2 788 89.9833 792.9 82.05C797.8 73.8833 803.867 67.1167 811.1 61.75C818.567 56.3833 826.5 52.4167 834.9 49.85C843.533 47.05 851.583 45.7667 859.05 46C864.417 46.2333 869.783 46.9333 875.15 48.1C880.75 49.0333 885.883 50.7833 890.55 53.35C894.75 55.6833 898.017 57.55 900.35 58.95C902.683 60.1167 905.017 62.6833 907.35 66.65ZM1013.85 56.5C1010.11 65.6 1006.61 74.9333 1003.35 84.5C1000.31 94.0667 997.746 103.75 995.646 113.55C993.546 123.117 991.912 132.683 990.746 142.25C989.812 151.817 989.579 160.917 990.046 169.55C989.579 170.95 989.112 172.117 988.646 173.05C988.412 173.75 988.296 174.333 988.296 174.8C988.529 175.967 988.879 176.9 989.346 177.6C989.812 178.3 990.046 179.583 990.046 181.45C995.646 185.183 1002.41 187.283 1010.35 187.75C1018.28 188.217 1026.21 187.283 1034.15 184.95C1042.31 182.617 1049.43 179.467 1055.5 175.5C1064.13 169.9 1070.78 163.367 1075.45 155.9C1080.35 148.2 1083.96 140.15 1086.3 131.75C1088.63 123.117 1090.03 114.25 1090.5 105.15C1090.96 96.05 1091.2 87.1833 1091.2 78.55C1091.2 77.85 1091.43 77.2667 1091.9 76.8C1092.6 76.1 1092.95 75.4 1092.95 74.7C1092.95 74 1093.06 73.3 1093.3 72.6C1093.53 72.1333 1093.65 71.55 1093.65 70.85C1093.65 70.15 1093.76 69.5667 1094 69.1C1094 68.6333 1094.46 68.1667 1095.4 67.7C1096.56 67 1097.15 67.2333 1097.15 68.4C1098.55 78.9 1099.48 89.8667 1099.95 101.3C1100.41 112.733 1099.48 124.05 1097.15 135.25C1094.81 146.45 1090.85 157.067 1085.25 167.1C1079.88 177.133 1071.95 185.883 1061.45 193.35C1054.68 198.017 1046.4 202.333 1036.6 206.3C1026.8 210.5 1017 213.533 1007.2 215.4C1001.6 216.1 997.746 215.517 995.646 213.65C993.546 211.783 991.212 210.267 988.646 209.1C985.379 207.467 983.162 206.183 981.996 205.25C981.062 204.317 979.779 202.333 978.146 199.3C972.546 188.1 969.512 176.317 969.046 163.95C968.579 151.35 969.629 138.983 972.196 126.85C974.762 114.717 978.262 103.167 982.696 92.2C987.362 81 991.796 71.0833 995.996 62.45C997.162 60.5833 997.979 59.65 998.446 59.65C999.146 59.65 1000.2 59.1833 1001.6 58.25C1002.53 57.7833 1003.81 56.9667 1005.45 55.8C1007.31 54.4 1008.71 53.8167 1009.65 54.05C1010.11 54.05 1010.81 54.1667 1011.75 54.4C1012.91 54.4 1013.73 54.5167 1014.2 54.75C1014.66 54.9833 1014.55 55.2167 1013.85 55.45C1013.38 55.6833 1013.38 56.0333 1013.85 56.5ZM1247.37 114.6C1249.71 115.067 1251.34 115.533 1252.27 116C1253.44 116.233 1254.14 116.933 1254.37 118.1L1248.42 126.5C1247.02 127.667 1245.16 128.6 1242.82 129.3C1240.72 130 1238.74 130.583 1236.87 131.05C1231.51 131.517 1225.56 131.867 1219.02 132.1C1212.49 132.333 1205.72 132.683 1198.72 133.15C1191.72 133.383 1184.61 133.617 1177.37 133.85C1170.37 134.083 1163.72 134.317 1157.42 134.55C1157.42 144.35 1157.42 153.45 1157.42 161.85C1157.66 170.25 1158.01 177.017 1158.47 182.15C1164.31 181.217 1171.07 179.7 1178.77 177.6C1186.47 175.5 1194.76 173.05 1203.62 170.25C1212.49 167.45 1221.71 164.417 1231.27 161.15C1240.84 157.883 1250.17 154.5 1259.27 151C1262.54 149.833 1265.57 148.9 1268.37 148.2C1271.41 147.267 1274.44 146.333 1277.47 145.4C1277.47 146.333 1277.36 147.033 1277.12 147.5C1276.89 147.733 1276.54 148.083 1276.07 148.55C1275.37 150.417 1274.32 152.05 1272.92 153.45C1271.52 154.617 1270.12 155.667 1268.72 156.6C1267.56 157.533 1266.51 158.35 1265.57 159.05C1264.41 159.983 1263.36 161.383 1262.42 163.25C1261.72 165.117 1260.09 166.867 1257.52 168.5C1242.36 177.833 1227.07 185.533 1211.67 191.6C1196.27 197.667 1179.94 203.15 1162.67 208.05C1158.71 209.217 1155.56 209.333 1153.22 208.4C1150.89 207.7 1148.91 205.6 1147.27 202.1C1146.81 200.233 1146.22 198.717 1145.52 197.55C1144.82 196.383 1143.19 194.867 1140.62 193C1139.46 192.067 1138.87 190.55 1138.87 188.45C1138.87 186.117 1138.76 183.667 1138.52 181.1C1138.06 175.5 1137.71 168.733 1137.47 160.8C1137.47 152.633 1137.59 144 1137.82 134.9H1128.72C1126.62 134.667 1125.11 134.433 1124.17 134.2C1123.24 133.733 1121.84 132.567 1119.97 130.7C1119.97 129.067 1120.32 128.017 1121.02 127.55C1121.96 127.083 1122.77 126.383 1123.47 125.45C1124.17 124.517 1124.76 123.467 1125.22 122.3C1125.92 121.133 1126.86 120.317 1128.02 119.85C1129.19 119.617 1130.59 119.383 1132.22 119.15C1134.09 118.917 1136.19 118.567 1138.52 118.1C1138.99 109.467 1139.34 100.833 1139.57 92.2C1140.04 83.5667 1140.51 75.5167 1140.97 68.05H1136.07C1133.27 68.05 1131.29 67.8167 1130.12 67.35C1129.19 66.65 1128.49 66.0667 1128.02 65.6C1127.56 64.9 1127.21 64.3167 1126.97 63.85C1126.74 63.15 1126.04 62.6833 1124.87 62.45C1123.01 62.2167 1122.07 61.8667 1122.07 61.4C1122.07 60.9333 1121.61 60.4667 1120.67 60C1119.74 59.3 1120.09 58.4833 1121.72 57.55C1123.59 56.6167 1125.46 54.75 1127.32 51.95C1128.96 50.3167 1129.89 49.0333 1130.12 48.1C1130.59 47.1667 1132.11 46.1167 1134.67 44.95C1137.01 43.7833 1141.44 43.0833 1147.97 42.85C1154.51 42.6167 1161.86 42.7333 1170.02 43.2C1178.19 43.4333 1186.47 44.0167 1194.87 44.95C1203.51 45.65 1210.86 46.5833 1216.92 47.75C1220.66 48.6833 1224.04 49.85 1227.07 51.25C1230.11 52.4167 1233.02 54.05 1235.82 56.15C1235.82 56.85 1235.24 57.3167 1234.07 57.55C1233.14 57.55 1232.44 57.7833 1231.97 58.25C1231.04 58.95 1230.11 59.5333 1229.17 60C1228.24 60.2333 1227.42 60.5833 1226.72 61.05C1225.79 61.5167 1224.86 61.8667 1223.92 62.1C1220.19 63.2667 1216.22 64.3167 1212.02 65.25C1208.06 65.95 1203.51 66.5333 1198.37 67C1193.47 67.4667 1187.64 67.8167 1180.87 68.05C1174.34 68.05 1166.76 68.05 1158.12 68.05C1157.89 74.8167 1157.66 82.2833 1157.42 90.45C1157.42 98.6167 1157.42 107.017 1157.42 115.65C1168.62 114.483 1180.99 113.55 1194.52 112.85C1208.29 111.917 1221.12 111.333 1233.02 111.1C1235.59 111.1 1238.04 111.683 1240.37 112.85C1242.71 114.017 1245.04 114.6 1247.37 114.6ZM1412.91 68.4C1412.91 78.6667 1411.16 88.1167 1407.66 96.75C1406.03 101.183 1403.81 105.617 1401.01 110.05C1398.21 114.25 1395.06 118.45 1391.56 122.65C1388.29 126.617 1384.79 130.467 1381.06 134.2C1377.56 137.7 1374.29 140.967 1371.26 144C1378.26 146.1 1385.96 148.433 1394.36 151C1402.99 153.333 1411.51 156.133 1419.91 159.4C1428.31 162.667 1436.36 166.4 1444.06 170.6C1451.76 174.567 1458.41 179.117 1464.01 184.25C1465.64 185.65 1466.69 187.05 1467.16 188.45C1467.63 189.617 1467.86 191.133 1467.86 193C1467.86 194.867 1467.86 196.033 1467.86 196.5C1468.09 196.967 1467.74 197.9 1466.81 199.3C1466.11 200.467 1465.64 201.75 1465.41 203.15C1465.41 204.55 1464.94 205.483 1464.01 205.95C1462.84 206.417 1461.68 206.183 1460.51 205.25C1447.21 196.617 1431.46 188.8 1413.26 181.8C1395.29 174.8 1377.33 168.733 1359.36 163.6C1357.49 163.6 1355.74 163.95 1354.11 164.65C1352.48 165.35 1350.49 166.167 1348.16 167.1C1346.29 167.8 1343.73 168.617 1340.46 169.55C1337.43 170.483 1335.79 170.483 1335.56 169.55C1335.56 165.817 1336.61 162.433 1338.71 159.4C1340.81 156.367 1342.68 153.217 1344.31 149.95C1346.18 145.983 1347.34 143.417 1347.81 142.25C1348.51 141.083 1349.44 139.8 1350.61 138.4C1351.54 137.233 1352.59 135.833 1353.76 134.2C1355.16 132.333 1357.14 130.117 1359.71 127.55C1365.54 121.95 1370.44 116.7 1374.41 111.8C1378.61 106.667 1381.99 101.767 1384.56 97.1C1387.36 92.2 1389.69 87.4167 1391.56 82.75C1393.43 78.0833 1395.29 73.4167 1397.16 68.75C1381.99 69.2167 1368.34 70.5 1356.21 72.6C1344.08 74.4667 1331.59 77.0333 1318.76 80.3C1320.16 89.1667 1321.21 99.2 1321.91 110.4C1322.61 121.367 1323.19 132.683 1323.66 144.35C1324.36 156.017 1325.06 167.683 1325.76 179.35C1326.46 190.783 1327.74 201.4 1329.61 211.2C1330.78 214.467 1331.13 217.383 1330.66 219.95C1330.43 220.65 1330.31 221.233 1330.31 221.7C1330.31 222.167 1330.08 222.633 1329.61 223.1C1320.74 202.1 1314.33 179.467 1310.36 155.2C1306.63 130.7 1306.86 106.317 1311.06 82.05C1309.43 82.2833 1307.21 82.75 1304.41 83.45C1301.61 84.15 1298.58 84.9667 1295.31 85.9C1292.28 86.8333 1289.24 87.7667 1286.21 88.7C1283.41 89.6333 1280.96 90.3333 1278.86 90.8L1270.81 91.85C1270.11 89.75 1270.34 88.2333 1271.51 87.3C1272.44 86.1333 1273.14 84.7333 1273.61 83.1C1275.24 77.5 1278.63 73.3 1283.76 70.5C1285.86 69.3333 1287.61 67.9333 1289.01 66.3C1290.41 64.6667 1292.04 63.3833 1293.91 62.45C1300.21 59.8833 1307.33 57.6667 1315.26 55.8C1323.19 53.9333 1331.24 52.5333 1339.41 51.6C1347.81 50.4333 1356.09 49.9667 1364.26 50.2C1372.66 50.2 1380.59 51.0167 1388.06 52.65C1390.39 53.1167 1392.61 54.05 1394.71 55.45C1396.81 56.6167 1398.91 57.6667 1401.01 58.6L1406.61 62.1C1411.51 62.8 1413.61 64.9 1412.91 68.4ZM1598.5 68.4C1598.5 78.6667 1596.75 88.1167 1593.25 96.75C1591.62 101.183 1589.4 105.617 1586.6 110.05C1583.8 114.25 1580.65 118.45 1577.15 122.65C1573.89 126.617 1570.39 130.467 1566.65 134.2C1563.15 137.7 1559.89 140.967 1556.85 144C1563.85 146.1 1571.55 148.433 1579.95 151C1588.59 153.333 1597.1 156.133 1605.5 159.4C1613.9 162.667 1621.95 166.4 1629.65 170.6C1637.35 174.567 1644 179.117 1649.6 184.25C1651.24 185.65 1652.29 187.05 1652.75 188.45C1653.22 189.617 1653.45 191.133 1653.45 193C1653.45 194.867 1653.45 196.033 1653.45 196.5C1653.69 196.967 1653.34 197.9 1652.4 199.3C1651.7 200.467 1651.24 201.75 1651 203.15C1651 204.55 1650.54 205.483 1649.6 205.95C1648.44 206.417 1647.27 206.183 1646.1 205.25C1632.8 196.617 1617.05 188.8 1598.85 181.8C1580.89 174.8 1562.92 168.733 1544.95 163.6C1543.09 163.6 1541.34 163.95 1539.7 164.65C1538.07 165.35 1536.09 166.167 1533.75 167.1C1531.89 167.8 1529.32 168.617 1526.05 169.55C1523.02 170.483 1521.39 170.483 1521.15 169.55C1521.15 165.817 1522.2 162.433 1524.3 159.4C1526.4 156.367 1528.27 153.217 1529.9 149.95C1531.77 145.983 1532.94 143.417 1533.4 142.25C1534.1 141.083 1535.04 139.8 1536.2 138.4C1537.14 137.233 1538.19 135.833 1539.35 134.2C1540.75 132.333 1542.74 130.117 1545.3 127.55C1551.14 121.95 1556.04 116.7 1560 111.8C1564.2 106.667 1567.59 101.767 1570.15 97.1C1572.95 92.2 1575.29 87.4167 1577.15 82.75C1579.02 78.0833 1580.89 73.4167 1582.75 68.75C1567.59 69.2167 1553.94 70.5 1541.8 72.6C1529.67 74.4667 1517.19 77.0333 1504.35 80.3C1505.75 89.1667 1506.8 99.2 1507.5 110.4C1508.2 121.367 1508.79 132.683 1509.25 144.35C1509.95 156.017 1510.65 167.683 1511.35 179.35C1512.05 190.783 1513.34 201.4 1515.2 211.2C1516.37 214.467 1516.72 217.383 1516.25 219.95C1516.02 220.65 1515.9 221.233 1515.9 221.7C1515.9 222.167 1515.67 222.633 1515.2 223.1C1506.34 202.1 1499.92 179.467 1495.95 155.2C1492.22 130.7 1492.45 106.317 1496.65 82.05C1495.02 82.2833 1492.8 82.75 1490 83.45C1487.2 84.15 1484.17 84.9667 1480.9 85.9C1477.87 86.8333 1474.84 87.7667 1471.8 88.7C1469 89.6333 1466.55 90.3333 1464.45 90.8L1456.4 91.85C1455.7 89.75 1455.94 88.2333 1457.1 87.3C1458.04 86.1333 1458.74 84.7333 1459.2 83.1C1460.84 77.5 1464.22 73.3 1469.35 70.5C1471.45 69.3333 1473.2 67.9333 1474.6 66.3C1476 64.6667 1477.64 63.3833 1479.5 62.45C1485.8 59.8833 1492.92 57.6667 1500.85 55.8C1508.79 53.9333 1516.84 52.5333 1525 51.6C1533.4 50.4333 1541.69 49.9667 1549.85 50.2C1558.25 50.2 1566.19 51.0167 1573.65 52.65C1575.99 53.1167 1578.2 54.05 1580.3 55.45C1582.4 56.6167 1584.5 57.6667 1586.6 58.6L1592.2 62.1C1597.1 62.8 1599.2 64.9 1598.5 68.4ZM1807.9 137.35C1807.2 138.517 1806.15 139.333 1804.75 139.8C1803.58 140.033 1802.42 140.5 1801.25 141.2C1800.08 141.9 1798.92 142.833 1797.75 144C1796.58 145.167 1795.42 146.1 1794.25 146.8C1797.52 159.4 1800.08 170.367 1801.95 179.7C1803.82 189.033 1804.98 196.033 1805.45 200.7C1805.92 205.367 1806.27 210.5 1806.5 216.1C1806.73 221.7 1806.85 226.833 1806.85 231.5C1806.85 235 1806.62 237.8 1806.15 239.9C1805.92 242.233 1805.45 244.45 1804.75 246.55C1801.95 243.05 1799.62 239.317 1797.75 235.35C1796.12 231.383 1794.37 227.417 1792.5 223.45C1788.53 211.55 1784.68 199.067 1780.95 186C1777.45 172.933 1773.95 159.633 1770.45 146.1C1763.92 145.867 1756.92 145.75 1749.45 145.75C1741.98 145.75 1734.52 145.75 1727.05 145.75C1719.58 145.75 1712.47 145.867 1705.7 146.1C1699.17 146.1 1693.45 146.217 1688.55 146.45C1688.08 147.85 1687.62 149.483 1687.15 151.35C1685.75 154.383 1684.58 157.767 1683.65 161.5C1682.72 165 1681.9 168.85 1681.2 173.05C1680.5 177.017 1679.68 181.217 1678.75 185.65C1677.82 190.083 1676.65 194.517 1675.25 198.95C1678.28 198.95 1681.2 198.017 1684 196.15C1687.03 194.05 1690.07 193 1693.1 193C1691 195.1 1689.13 197.433 1687.5 200C1686.1 202.567 1684.82 205.95 1683.65 210.15C1683.42 211.317 1682.72 212.483 1681.55 213.65C1680.38 215.05 1679.57 216.1 1679.1 216.8C1678.63 217.733 1678.17 218.667 1677.7 219.6C1677.23 220.767 1676.65 221.583 1675.95 222.05C1674.32 222.983 1672.92 223.45 1671.75 223.45C1670.58 223.683 1669.77 223.45 1669.3 222.75C1667.43 219.95 1666.15 216.917 1665.45 213.65C1664.98 210.617 1664.52 207.35 1664.05 203.85C1664.05 197.55 1664.87 189.383 1666.5 179.35C1668.13 169.317 1670.23 158.583 1672.8 147.15C1670.93 146.683 1669.07 145.867 1667.2 144.7C1665.33 143.3 1663.7 142.367 1662.3 141.9C1659.73 140.733 1657.63 140.15 1656 140.15C1654.37 139.917 1652.62 138.983 1650.75 137.35L1672.1 131.75C1673.27 131.75 1674.78 131.517 1676.65 131.05C1679.45 120.083 1682.25 109.583 1685.05 99.55C1687.85 89.5167 1690.53 81 1693.1 74C1694.97 68.6333 1697.18 62.45 1699.75 55.45C1702.55 48.45 1705.7 41.8 1709.2 35.5C1712.93 28.9667 1717.02 23.3667 1721.45 18.7C1726.12 14.0333 1731.13 11.1167 1736.5 9.94999C1738.13 9.48332 1739.77 9.13333 1741.4 8.9C1743.03 8.66665 1744.78 8.54998 1746.65 8.54998C1748.52 8.54998 1749.92 9.48332 1750.85 11.35C1751.78 12.9833 1753.18 15.0833 1755.05 17.65C1756.22 19.75 1757.27 21.6167 1758.2 23.25C1759.37 24.65 1760.53 27.6833 1761.7 32.35C1767.3 49.3833 1772.55 66.5333 1777.45 83.8C1782.35 100.833 1786.67 116.933 1790.4 132.1L1811.75 136.65L1807.9 137.35ZM1736.5 25C1732.53 30.3667 1728.8 36.3167 1725.3 42.85C1721.8 49.15 1718.3 56.5 1714.8 64.9C1711.3 73.0667 1707.8 82.5167 1704.3 93.25C1700.8 103.75 1697.18 115.65 1693.45 128.95C1705.58 127.55 1717.72 126.733 1729.85 126.5C1741.98 126.267 1754 126.733 1765.9 127.9C1761 109 1756.22 90.6833 1751.55 72.95C1746.88 54.9833 1741.87 39 1736.5 25Z" fill="white"/>
</g>
<defs>
<clipPath id="clip0_330_3">
<rect width="1851" height="309" fill="white"/>
</clipPath>
</defs>
</svg>
