<svg width="2204" height="309" viewBox="0 0 2204 309" fill="none" xmlns="http://www.w3.org/2000/svg">
<g clip-path="url(#clip0_325_3)">
<path d="M298.594 134.35C297.894 135.517 296.844 136.333 295.444 136.8C294.278 137.033 293.111 137.5 291.944 138.2C290.778 138.9 289.611 139.833 288.444 141C287.278 142.167 286.111 143.1 284.944 143.8C288.211 156.4 290.778 167.367 292.644 176.7C294.511 186.033 295.678 193.033 296.144 197.7C296.611 202.367 296.961 207.5 297.194 213.1C297.428 218.7 297.544 223.833 297.544 228.5C297.544 232 297.311 234.8 296.844 236.9C296.611 239.233 296.144 241.45 295.444 243.55C292.644 240.05 290.311 236.317 288.444 232.35C286.811 228.383 285.061 224.417 283.194 220.45C279.228 208.55 275.378 196.067 271.644 183C268.144 169.933 264.644 156.633 261.144 143.1C254.611 142.867 247.611 142.75 240.144 142.75C232.678 142.75 225.211 142.75 217.744 142.75C210.278 142.75 203.161 142.867 196.394 143.1C189.861 143.1 184.144 143.217 179.244 143.45C178.778 144.85 178.311 146.483 177.844 148.35C176.444 151.383 175.278 154.767 174.344 158.5C173.411 162 172.594 165.85 171.894 170.05C171.194 174.017 170.378 178.217 169.444 182.65C168.511 187.083 167.344 191.517 165.944 195.95C168.978 195.95 171.894 195.017 174.694 193.15C177.728 191.05 180.761 190 183.794 190C181.694 192.1 179.828 194.433 178.194 197C176.794 199.567 175.511 202.95 174.344 207.15C174.111 208.317 173.411 209.483 172.244 210.65C171.078 212.05 170.261 213.1 169.794 213.8C169.328 214.733 168.861 215.667 168.394 216.6C167.928 217.767 167.344 218.583 166.644 219.05C165.011 219.983 163.611 220.45 162.444 220.45C161.278 220.683 160.461 220.45 159.994 219.75C158.128 216.95 156.844 213.917 156.144 210.65C155.678 207.617 155.211 204.35 154.744 200.85C154.744 194.55 155.561 186.383 157.194 176.35C158.828 166.317 160.928 155.583 163.494 144.15C161.628 143.683 159.761 142.867 157.894 141.7C156.028 140.3 154.394 139.367 152.994 138.9C150.428 137.733 148.328 137.15 146.694 137.15C145.061 136.917 143.311 135.983 141.444 134.35L162.794 128.75C163.961 128.75 165.478 128.517 167.344 128.05C170.144 117.083 172.944 106.583 175.744 96.55C178.544 86.5167 181.228 78 183.794 71C185.661 65.6333 187.878 59.45 190.444 52.45C193.244 45.45 196.394 38.8 199.894 32.5C203.628 25.9667 207.711 20.3667 212.144 15.7C216.811 11.0333 221.828 8.11665 227.194 6.94999C228.828 6.48332 230.461 6.13333 232.094 5.9C233.728 5.66665 235.478 5.54998 237.344 5.54998C239.211 5.54998 240.611 6.48332 241.544 8.34999C242.478 9.98333 243.878 12.0833 245.744 14.65C246.911 16.75 247.961 18.6167 248.894 20.25C250.061 21.65 251.228 24.6833 252.394 29.35C257.994 46.3833 263.244 63.5333 268.144 80.8C273.044 97.8333 277.361 113.933 281.094 129.1L302.444 133.65L298.594 134.35ZM227.194 22C223.228 27.3667 219.494 33.3167 215.994 39.85C212.494 46.15 208.994 53.5 205.494 61.9C201.994 70.0667 198.494 79.5167 194.994 90.25C191.494 100.75 187.878 112.65 184.144 125.95C196.278 124.55 208.411 123.733 220.544 123.5C232.678 123.267 244.694 123.733 256.594 124.9C251.694 106 246.911 87.6833 242.244 69.95C237.578 51.9833 232.561 36 227.194 22ZM419.694 53.15C422.728 56.1833 425.294 59.8 427.394 64C429.494 68.2 431.128 72.75 432.294 77.65C433.461 82.55 433.928 87.5667 433.694 92.7C433.694 97.6 432.994 102.267 431.594 106.7C425.528 142.4 407.678 172.15 378.044 195.95C374.778 198.283 371.628 199.683 368.594 200.15C365.561 200.85 362.644 202.133 359.844 204C357.978 205.167 356.111 206.1 354.244 206.8C352.611 207.5 350.628 207.85 348.294 207.85C347.828 206.683 347.711 205.633 347.944 204.7C348.178 203.767 348.528 202.717 348.994 201.55C349.228 200.617 349.228 199.45 348.994 198.05C348.994 196.883 349.228 195.833 349.694 194.9C350.628 193.267 351.444 191.75 352.144 190.35C353.078 188.95 353.661 187.667 353.894 186.5C353.894 185.333 353.078 184.167 351.444 183C350.044 181.6 348.994 179.967 348.294 178.1C345.261 170.633 342.694 162.233 340.594 152.9C338.494 143.333 336.628 133.533 334.994 123.5C333.594 113.233 332.311 103.083 331.144 93.05C330.211 82.7833 329.394 73.2167 328.694 64.35L320.294 67.85C319.128 68.3167 318.311 67.5 317.844 65.4C317.378 63.3 317.378 61.3167 317.844 59.45L319.594 52.8C320.061 51.6333 320.294 50.35 320.294 48.95C320.294 47.3167 320.994 45.9167 322.394 44.75C324.728 42.8833 328.111 40.7833 332.544 38.45C337.211 36.1167 342.461 35.0667 348.294 35.3C354.128 32.2667 360.311 30.4 366.844 29.7C373.378 29 379.794 29.4667 386.094 31.1C392.394 32.5 398.461 35.0667 404.294 38.8C410.128 42.5333 415.261 47.3167 419.694 53.15ZM419.694 71C416.661 63.5333 411.878 58.2833 405.344 55.25C399.044 51.9833 392.161 50.1167 384.694 49.65C377.461 49.1833 370.461 49.7667 363.694 51.4C356.928 53.0333 351.794 55.0167 348.294 57.35C348.994 65.05 349.694 73.6833 350.394 83.25C351.328 92.8167 352.378 102.733 353.544 113C354.944 123.033 356.578 133.183 358.444 143.45C360.544 153.717 363.111 163.283 366.144 172.15C375.011 166.317 383.061 159.783 390.294 152.55C397.528 145.083 403.594 137.15 408.494 128.75C413.394 120.117 416.778 111.017 418.644 101.45C420.744 91.65 421.094 81.5 419.694 71ZM582.753 65.4C582.753 75.6667 581.003 85.1167 577.503 93.75C575.87 98.1833 573.653 102.617 570.853 107.05C568.053 111.25 564.903 115.45 561.403 119.65C558.137 123.617 554.637 127.467 550.903 131.2C547.403 134.7 544.137 137.967 541.103 141C548.103 143.1 555.803 145.433 564.203 148C572.837 150.333 581.353 153.133 589.753 156.4C598.153 159.667 606.203 163.4 613.903 167.6C621.603 171.567 628.253 176.117 633.853 181.25C635.487 182.65 636.537 184.05 637.003 185.45C637.47 186.617 637.703 188.133 637.703 190C637.703 191.867 637.703 193.033 637.703 193.5C637.937 193.967 637.587 194.9 636.653 196.3C635.953 197.467 635.487 198.75 635.253 200.15C635.253 201.55 634.787 202.483 633.853 202.95C632.687 203.417 631.52 203.183 630.353 202.25C617.053 193.617 601.303 185.8 583.103 178.8C565.137 171.8 547.17 165.733 529.203 160.6C527.337 160.6 525.587 160.95 523.953 161.65C522.32 162.35 520.337 163.167 518.003 164.1C516.137 164.8 513.57 165.617 510.303 166.55C507.27 167.483 505.637 167.483 505.403 166.55C505.403 162.817 506.453 159.433 508.553 156.4C510.653 153.367 512.52 150.217 514.153 146.95C516.02 142.983 517.187 140.417 517.653 139.25C518.353 138.083 519.287 136.8 520.453 135.4C521.387 134.233 522.437 132.833 523.603 131.2C525.003 129.333 526.987 127.117 529.553 124.55C535.387 118.95 540.287 113.7 544.253 108.8C548.453 103.667 551.837 98.7667 554.403 94.1C557.203 89.2 559.537 84.4167 561.403 79.75C563.27 75.0833 565.137 70.4167 567.003 65.75C551.837 66.2167 538.187 67.5 526.053 69.6C513.92 71.4667 501.437 74.0333 488.603 77.3C490.003 86.1667 491.053 96.2 491.753 107.4C492.453 118.367 493.037 129.683 493.503 141.35C494.203 153.017 494.903 164.683 495.603 176.35C496.303 187.783 497.587 198.4 499.453 208.2C500.62 211.467 500.97 214.383 500.503 216.95C500.27 217.65 500.153 218.233 500.153 218.7C500.153 219.167 499.92 219.633 499.453 220.1C490.587 199.1 484.17 176.467 480.203 152.2C476.47 127.7 476.703 103.317 480.903 79.05C479.27 79.2833 477.053 79.75 474.253 80.45C471.453 81.15 468.42 81.9667 465.153 82.9C462.12 83.8333 459.087 84.7667 456.053 85.7C453.253 86.6333 450.803 87.3333 448.703 87.8L440.653 88.85C439.953 86.75 440.187 85.2333 441.353 84.3C442.287 83.1333 442.987 81.7333 443.453 80.1C445.087 74.5 448.47 70.3 453.603 67.5C455.703 66.3333 457.453 64.9333 458.853 63.3C460.253 61.6667 461.887 60.3833 463.753 59.45C470.053 56.8833 477.17 54.6667 485.103 52.8C493.037 50.9333 501.087 49.5333 509.253 48.6C517.653 47.4333 525.937 46.9667 534.103 47.2C542.503 47.2 550.437 48.0167 557.903 49.65C560.237 50.1167 562.453 51.05 564.553 52.45C566.653 53.6167 568.753 54.6667 570.853 55.6L576.453 59.1C581.353 59.8 583.453 61.9 582.753 65.4ZM690.649 171.1C691.116 174.133 690.882 177.283 689.949 180.55C689.249 183.583 689.482 186.383 690.649 188.95C691.349 190.817 691.582 193.617 691.349 197.35C691.349 201.083 691.116 204.233 690.649 206.8C689.249 206.8 687.849 206.217 686.449 205.05C685.282 204.117 683.999 202.833 682.599 201.2C680.966 199.333 679.099 197.583 676.999 195.95C675.132 194.083 673.732 191.75 672.799 188.95C669.766 177.05 667.432 164.567 665.799 151.5C664.166 138.2 662.999 124.783 662.299 111.25C661.599 97.7167 661.132 84.4167 660.899 71.35C660.899 58.05 660.899 45.45 660.899 33.55C660.899 29.5833 661.366 27.1333 662.299 26.2C662.766 25.7333 663.349 25.7333 664.049 26.2C664.982 26.4333 666.032 26.6667 667.199 26.9C668.366 27.1333 669.416 27.6 670.349 28.3C671.282 28.7667 671.982 29.2333 672.449 29.7C673.149 30.4 673.849 30.8667 674.549 31.1C675.249 31.3333 675.716 32.0333 675.949 33.2C677.816 56.3 680.032 79.2833 682.599 102.15C685.166 125.017 687.849 148 690.649 171.1ZM882.042 134.35C881.342 135.517 880.292 136.333 878.892 136.8C877.725 137.033 876.558 137.5 875.392 138.2C874.225 138.9 873.058 139.833 871.892 141C870.725 142.167 869.558 143.1 868.392 143.8C871.658 156.4 874.225 167.367 876.092 176.7C877.958 186.033 879.125 193.033 879.592 197.7C880.058 202.367 880.408 207.5 880.642 213.1C880.875 218.7 880.992 223.833 880.992 228.5C880.992 232 880.758 234.8 880.292 236.9C880.058 239.233 879.592 241.45 878.892 243.55C876.092 240.05 873.758 236.317 871.892 232.35C870.258 228.383 868.508 224.417 866.642 220.45C862.675 208.55 858.825 196.067 855.092 183C851.592 169.933 848.092 156.633 844.592 143.1C838.058 142.867 831.058 142.75 823.592 142.75C816.125 142.75 808.658 142.75 801.192 142.75C793.725 142.75 786.608 142.867 779.842 143.1C773.308 143.1 767.592 143.217 762.692 143.45C762.225 144.85 761.758 146.483 761.292 148.35C759.892 151.383 758.725 154.767 757.792 158.5C756.858 162 756.042 165.85 755.342 170.05C754.642 174.017 753.825 178.217 752.892 182.65C751.958 187.083 750.792 191.517 749.392 195.95C752.425 195.95 755.342 195.017 758.142 193.15C761.175 191.05 764.208 190 767.242 190C765.142 192.1 763.275 194.433 761.642 197C760.242 199.567 758.958 202.95 757.792 207.15C757.558 208.317 756.858 209.483 755.692 210.65C754.525 212.05 753.708 213.1 753.242 213.8C752.775 214.733 752.308 215.667 751.842 216.6C751.375 217.767 750.792 218.583 750.092 219.05C748.458 219.983 747.058 220.45 745.892 220.45C744.725 220.683 743.908 220.45 743.442 219.75C741.575 216.95 740.292 213.917 739.592 210.65C739.125 207.617 738.658 204.35 738.192 200.85C738.192 194.55 739.008 186.383 740.642 176.35C742.275 166.317 744.375 155.583 746.942 144.15C745.075 143.683 743.208 142.867 741.342 141.7C739.475 140.3 737.842 139.367 736.442 138.9C733.875 137.733 731.775 137.15 730.142 137.15C728.508 136.917 726.758 135.983 724.892 134.35L746.242 128.75C747.408 128.75 748.925 128.517 750.792 128.05C753.592 117.083 756.392 106.583 759.192 96.55C761.992 86.5167 764.675 78 767.242 71C769.108 65.6333 771.325 59.45 773.892 52.45C776.692 45.45 779.842 38.8 783.342 32.5C787.075 25.9667 791.158 20.3667 795.592 15.7C800.258 11.0333 805.275 8.11665 810.642 6.94999C812.275 6.48332 813.908 6.13333 815.542 5.9C817.175 5.66665 818.925 5.54998 820.792 5.54998C822.658 5.54998 824.058 6.48332 824.992 8.34999C825.925 9.98333 827.325 12.0833 829.192 14.65C830.358 16.75 831.408 18.6167 832.342 20.25C833.508 21.65 834.675 24.6833 835.842 29.35C841.442 46.3833 846.692 63.5333 851.592 80.8C856.492 97.8333 860.808 113.933 864.542 129.1L885.892 133.65L882.042 134.35ZM810.642 22C806.675 27.3667 802.942 33.3167 799.442 39.85C795.942 46.15 792.442 53.5 788.942 61.9C785.442 70.0667 781.942 79.5167 778.442 90.25C774.942 100.75 771.325 112.65 767.592 125.95C779.725 124.55 791.858 123.733 803.992 123.5C816.125 123.267 828.142 123.733 840.042 124.9C835.142 106 830.358 87.6833 825.692 69.95C821.025 51.9833 816.008 36 810.642 22ZM1047.94 48.25C1048.17 50.5833 1048.06 53.6167 1047.59 57.35C1047.12 61.0833 1046.66 64.5833 1046.19 67.85C1045.72 70.1833 1045.84 72.9833 1046.54 76.25C1047.24 79.2833 1047.71 81.85 1047.94 83.95C1046.54 88.3833 1045.14 93.8667 1043.74 100.4C1042.34 106.7 1041.06 113.467 1039.89 120.7C1038.72 127.7 1037.56 134.7 1036.39 141.7C1035.46 148.7 1034.87 155 1034.64 160.6C1036.04 165.033 1037.32 168.767 1038.49 171.8C1039.89 174.833 1041.06 177.75 1041.99 180.55C1042.92 183.117 1043.62 185.917 1044.09 188.95C1044.56 191.983 1044.79 195.717 1044.79 200.15C1043.16 201.783 1042.11 202.717 1041.64 202.95C1041.41 203.417 1040.47 204.233 1038.84 205.4C1037.44 206.567 1036.04 206.8 1034.64 206.1C1033.47 205.4 1032.19 205.05 1030.79 205.05C1028.69 205.05 1027.64 204.817 1027.64 204.35C1027.64 203.883 1027.06 203.067 1025.89 201.9C1022.16 198.167 1019.01 194.433 1016.44 190.7C1014.11 186.733 1011.89 182.883 1009.79 179.15C1007.69 175.183 1005.71 171.217 1003.84 167.25C1002.21 163.283 1000.22 159.317 997.892 155.35C995.092 150.217 991.592 144.267 987.392 137.5C983.425 130.5 978.992 123.733 974.092 117.2C969.192 110.667 963.825 104.833 957.992 99.7C952.392 94.5667 946.675 91.3 940.842 89.9C935.475 108.1 932.325 125.833 931.392 143.1C930.692 160.133 931.858 176.117 934.892 191.05C935.125 193.15 935.125 194.55 934.892 195.25C934.658 195.95 934.308 197.117 933.842 198.75C933.375 200.617 932.792 202.833 932.092 205.4C931.625 208.2 931.042 210.183 930.342 211.35C930.575 214.617 930.692 217.65 930.692 220.45C930.692 223.25 930.108 225.35 928.942 226.75C921.475 214.85 916.342 201.783 913.542 187.55C910.975 173.083 909.808 158.383 910.042 143.45C910.508 128.517 912.025 113.933 914.592 99.7C917.158 85.2333 919.958 72.05 922.992 60.15C922.992 59.2167 923.225 58.5167 923.692 58.05C924.392 57.5833 924.975 57.1167 925.442 56.65C925.908 56.1833 926.258 55.8333 926.492 55.6C926.958 55.1333 927.542 54.7833 928.242 54.55C929.408 54.3167 930.458 54.0833 931.392 53.85C932.325 53.3833 933.375 53.15 934.542 53.15C935.942 53.15 936.875 53.9667 937.342 55.6C937.808 57.2333 938.275 58.5167 938.742 59.45C939.442 60.6167 940.025 63.0667 940.492 66.8C940.958 70.3 941.075 72.6333 940.842 73.8C951.108 75.2 960.092 78.9333 967.792 85C975.725 90.8333 982.608 97.6 988.442 105.3C994.508 113 999.758 120.933 1004.19 129.1C1008.62 137.033 1012.47 143.917 1015.74 149.75C1015.97 144.617 1016.56 138.317 1017.49 130.85C1018.66 123.383 1019.82 115.8 1020.99 108.1C1022.39 100.4 1023.67 93.1667 1024.84 86.4C1026.24 79.4 1027.29 73.9167 1027.99 69.95C1028.69 66.6833 1029.74 64 1031.14 61.9C1032.54 59.8 1034.06 57.9333 1035.69 56.3C1036.62 55.3667 1037.56 54.0833 1038.49 52.45C1039.66 50.8167 1041.06 49.7667 1042.69 49.3C1043.86 48.8333 1044.67 48.6 1045.14 48.6C1045.84 48.6 1046.77 48.4833 1047.94 48.25Z" fill="#512CF8"/>
<path d="M1280.35 68.65C1280.35 69.8167 1280 70.9833 1279.3 72.15C1278.6 73.0833 1278.02 74.25 1277.55 75.65C1276.62 78.2167 1275.92 79.6167 1275.45 79.85C1275.22 80.0833 1274.4 81.0167 1273 82.65C1272.3 83.5833 1271.83 84.4 1271.6 85.1C1271.37 85.5667 1271.02 86.0333 1270.55 86.5C1269.62 86.9667 1268.33 86.7333 1266.7 85.8C1264.37 83.7 1261.57 81.4833 1258.3 79.15C1255.03 76.8167 1251.53 74.8333 1247.8 73.2C1244.07 71.3333 1240.1 70.05 1235.9 69.35C1231.93 68.65 1227.85 69 1223.65 70.4C1217.82 72.2667 1211.05 75.5333 1203.35 80.2C1195.65 84.8667 1189.12 90.5833 1183.75 97.35C1177.22 105.75 1173.72 114.85 1173.25 124.65C1172.78 134.217 1174.65 143.083 1178.85 151.25C1183.28 159.417 1189.82 166.417 1198.45 172.25C1207.08 177.85 1217.35 180.883 1229.25 181.35C1235.32 180.417 1240.57 178.433 1245 175.4C1249.67 172.133 1253.63 168.283 1256.9 163.85C1260.4 159.417 1263.32 154.75 1265.65 149.85C1267.98 144.717 1269.85 139.933 1271.25 135.5C1259.35 138.533 1247.45 141.1 1235.55 143.2C1223.65 145.067 1211.75 144.483 1199.85 141.45C1198.68 140.75 1198.33 140.517 1198.8 140.75C1199.27 140.75 1200.08 139.7 1201.25 137.6C1201.72 136.667 1202.07 135.5 1202.3 134.1C1202.77 132.467 1203.93 131.183 1205.8 130.25C1214.2 128.85 1222.83 127.1 1231.7 125C1240.57 122.667 1249.67 120.683 1259 119.05C1268.33 117.417 1277.78 116.6 1287.35 116.6C1296.92 116.6 1306.6 118.117 1316.4 121.15C1317.33 121.617 1318.38 121.967 1319.55 122.2C1320.95 122.2 1322.23 122.433 1323.4 122.9C1324.57 123.367 1325.62 124.067 1326.55 125C1327.48 125.7 1327.95 126.75 1327.95 128.15C1327.95 129.083 1326.9 129.55 1324.8 129.55C1318.73 129.55 1311.73 129.783 1303.8 130.25C1296.1 130.483 1289.22 131.417 1283.15 133.05C1282.92 138.65 1282.68 144.833 1282.45 151.6C1282.45 158.367 1282.68 165.367 1283.15 172.6C1283.85 179.6 1285.02 186.6 1286.65 193.6C1288.52 200.6 1291.32 207.017 1295.05 212.85C1295.52 213.317 1295.75 214.483 1295.75 216.35C1295.75 218.217 1295.52 219.733 1295.05 220.9C1294.58 221.6 1294.47 222.183 1294.7 222.65C1294.93 223.35 1294.82 223.933 1294.35 224.4C1293.88 225.333 1293.07 225.683 1291.9 225.45C1290.73 225.45 1289.8 225.217 1289.1 224.75C1283.03 218.683 1278.6 211.217 1275.8 202.35C1273.23 193.483 1271.72 185.083 1271.25 177.15C1256.32 192.083 1240.92 200.6 1225.05 202.7C1220.85 203.167 1217.47 203.167 1214.9 202.7C1212.57 202.467 1209.42 201.417 1205.45 199.55C1203.82 198.85 1201.37 198.267 1198.1 197.8C1195.07 197.333 1192.97 196.517 1191.8 195.35C1185.5 190.45 1179.9 184.85 1175 178.55C1170.33 172.25 1166.48 165.483 1163.45 158.25C1160.65 151.017 1158.67 143.55 1157.5 135.85C1156.57 127.917 1156.8 119.867 1158.2 111.7C1158.43 101.2 1161 91.9833 1165.9 84.05C1170.8 75.8833 1176.87 69.1167 1184.1 63.75C1191.57 58.3833 1199.5 54.4167 1207.9 51.85C1216.53 49.05 1224.58 47.7667 1232.05 48C1237.42 48.2333 1242.78 48.9333 1248.15 50.1C1253.75 51.0333 1258.88 52.7833 1263.55 55.35C1267.75 57.6833 1271.02 59.55 1273.35 60.95C1275.68 62.1167 1278.02 64.6833 1280.35 68.65ZM1386.85 58.5C1383.11 67.6 1379.61 76.9333 1376.35 86.5C1373.31 96.0667 1370.75 105.75 1368.65 115.55C1366.55 125.117 1364.91 134.683 1363.75 144.25C1362.81 153.817 1362.58 162.917 1363.05 171.55C1362.58 172.95 1362.11 174.117 1361.65 175.05C1361.41 175.75 1361.3 176.333 1361.3 176.8C1361.53 177.967 1361.88 178.9 1362.35 179.6C1362.81 180.3 1363.05 181.583 1363.05 183.45C1368.65 187.183 1375.41 189.283 1383.35 189.75C1391.28 190.217 1399.21 189.283 1407.15 186.95C1415.31 184.617 1422.43 181.467 1428.5 177.5C1437.13 171.9 1443.78 165.367 1448.45 157.9C1453.35 150.2 1456.96 142.15 1459.3 133.75C1461.63 125.117 1463.03 116.25 1463.5 107.15C1463.96 98.05 1464.2 89.1833 1464.2 80.55C1464.2 79.85 1464.43 79.2667 1464.9 78.8C1465.6 78.1 1465.95 77.4 1465.95 76.7C1465.95 76 1466.06 75.3 1466.3 74.6C1466.53 74.1333 1466.65 73.55 1466.65 72.85C1466.65 72.15 1466.76 71.5667 1467 71.1C1467 70.6333 1467.46 70.1667 1468.4 69.7C1469.56 69 1470.15 69.2333 1470.15 70.4C1471.55 80.9 1472.48 91.8667 1472.95 103.3C1473.41 114.733 1472.48 126.05 1470.15 137.25C1467.81 148.45 1463.85 159.067 1458.25 169.1C1452.88 179.133 1444.95 187.883 1434.45 195.35C1427.68 200.017 1419.4 204.333 1409.6 208.3C1399.8 212.5 1390 215.533 1380.2 217.4C1374.6 218.1 1370.75 217.517 1368.65 215.65C1366.55 213.783 1364.21 212.267 1361.65 211.1C1358.38 209.467 1356.16 208.183 1355 207.25C1354.06 206.317 1352.78 204.333 1351.15 201.3C1345.55 190.1 1342.51 178.317 1342.05 165.95C1341.58 153.35 1342.63 140.983 1345.2 128.85C1347.76 116.717 1351.26 105.167 1355.7 94.2C1360.36 83 1364.8 73.0833 1369 64.45C1370.16 62.5833 1370.98 61.65 1371.45 61.65C1372.15 61.65 1373.2 61.1833 1374.6 60.25C1375.53 59.7833 1376.81 58.9667 1378.45 57.8C1380.31 56.4 1381.71 55.8167 1382.65 56.05C1383.11 56.05 1383.81 56.1667 1384.75 56.4C1385.91 56.4 1386.73 56.5167 1387.2 56.75C1387.66 56.9833 1387.55 57.2167 1386.85 57.45C1386.38 57.6833 1386.38 58.0333 1386.85 58.5ZM1620.37 116.6C1622.71 117.067 1624.34 117.533 1625.27 118C1626.44 118.233 1627.14 118.933 1627.37 120.1L1621.42 128.5C1620.02 129.667 1618.16 130.6 1615.82 131.3C1613.72 132 1611.74 132.583 1609.87 133.05C1604.51 133.517 1598.56 133.867 1592.02 134.1C1585.49 134.333 1578.72 134.683 1571.72 135.15C1564.72 135.383 1557.61 135.617 1550.37 135.85C1543.37 136.083 1536.72 136.317 1530.42 136.55C1530.42 146.35 1530.42 155.45 1530.42 163.85C1530.66 172.25 1531.01 179.017 1531.47 184.15C1537.31 183.217 1544.07 181.7 1551.77 179.6C1559.47 177.5 1567.76 175.05 1576.62 172.25C1585.49 169.45 1594.71 166.417 1604.27 163.15C1613.84 159.883 1623.17 156.5 1632.27 153C1635.54 151.833 1638.57 150.9 1641.37 150.2C1644.41 149.267 1647.44 148.333 1650.47 147.4C1650.47 148.333 1650.36 149.033 1650.12 149.5C1649.89 149.733 1649.54 150.083 1649.07 150.55C1648.37 152.417 1647.32 154.05 1645.92 155.45C1644.52 156.617 1643.12 157.667 1641.72 158.6C1640.56 159.533 1639.51 160.35 1638.57 161.05C1637.41 161.983 1636.36 163.383 1635.42 165.25C1634.72 167.117 1633.09 168.867 1630.52 170.5C1615.36 179.833 1600.07 187.533 1584.67 193.6C1569.27 199.667 1552.94 205.15 1535.67 210.05C1531.71 211.217 1528.56 211.333 1526.22 210.4C1523.89 209.7 1521.91 207.6 1520.27 204.1C1519.81 202.233 1519.22 200.717 1518.52 199.55C1517.82 198.383 1516.19 196.867 1513.62 195C1512.46 194.067 1511.87 192.55 1511.87 190.45C1511.87 188.117 1511.76 185.667 1511.52 183.1C1511.06 177.5 1510.71 170.733 1510.47 162.8C1510.47 154.633 1510.59 146 1510.82 136.9H1501.72C1499.62 136.667 1498.11 136.433 1497.17 136.2C1496.24 135.733 1494.84 134.567 1492.97 132.7C1492.97 131.067 1493.32 130.017 1494.02 129.55C1494.96 129.083 1495.77 128.383 1496.47 127.45C1497.17 126.517 1497.76 125.467 1498.22 124.3C1498.92 123.133 1499.86 122.317 1501.02 121.85C1502.19 121.617 1503.59 121.383 1505.22 121.15C1507.09 120.917 1509.19 120.567 1511.52 120.1C1511.99 111.467 1512.34 102.833 1512.57 94.2C1513.04 85.5667 1513.51 77.5167 1513.97 70.05H1509.07C1506.27 70.05 1504.29 69.8167 1503.12 69.35C1502.19 68.65 1501.49 68.0667 1501.02 67.6C1500.56 66.9 1500.21 66.3167 1499.97 65.85C1499.74 65.15 1499.04 64.6833 1497.87 64.45C1496.01 64.2167 1495.07 63.8667 1495.07 63.4C1495.07 62.9333 1494.61 62.4667 1493.67 62C1492.74 61.3 1493.09 60.4833 1494.72 59.55C1496.59 58.6167 1498.46 56.75 1500.32 53.95C1501.96 52.3167 1502.89 51.0333 1503.12 50.1C1503.59 49.1667 1505.11 48.1167 1507.67 46.95C1510.01 45.7833 1514.44 45.0833 1520.97 44.85C1527.51 44.6167 1534.86 44.7333 1543.02 45.2C1551.19 45.4333 1559.47 46.0167 1567.87 46.95C1576.51 47.65 1583.86 48.5833 1589.92 49.75C1593.66 50.6833 1597.04 51.85 1600.07 53.25C1603.11 54.4167 1606.02 56.05 1608.82 58.15C1608.82 58.85 1608.24 59.3167 1607.07 59.55C1606.14 59.55 1605.44 59.7833 1604.97 60.25C1604.04 60.95 1603.11 61.5333 1602.17 62C1601.24 62.2333 1600.42 62.5833 1599.72 63.05C1598.79 63.5167 1597.86 63.8667 1596.92 64.1C1593.19 65.2667 1589.22 66.3167 1585.02 67.25C1581.06 67.95 1576.51 68.5333 1571.37 69C1566.47 69.4667 1560.64 69.8167 1553.87 70.05C1547.34 70.05 1539.76 70.05 1531.12 70.05C1530.89 76.8167 1530.66 84.2833 1530.42 92.45C1530.42 100.617 1530.42 109.017 1530.42 117.65C1541.62 116.483 1553.99 115.55 1567.52 114.85C1581.29 113.917 1594.12 113.333 1606.02 113.1C1608.59 113.1 1611.04 113.683 1613.37 114.85C1615.71 116.017 1618.04 116.6 1620.37 116.6ZM1785.91 70.4C1785.91 80.6667 1784.16 90.1167 1780.66 98.75C1779.03 103.183 1776.81 107.617 1774.01 112.05C1771.21 116.25 1768.06 120.45 1764.56 124.65C1761.29 128.617 1757.79 132.467 1754.06 136.2C1750.56 139.7 1747.29 142.967 1744.26 146C1751.26 148.1 1758.96 150.433 1767.36 153C1775.99 155.333 1784.51 158.133 1792.91 161.4C1801.31 164.667 1809.36 168.4 1817.06 172.6C1824.76 176.567 1831.41 181.117 1837.01 186.25C1838.64 187.65 1839.69 189.05 1840.16 190.45C1840.63 191.617 1840.86 193.133 1840.86 195C1840.86 196.867 1840.86 198.033 1840.86 198.5C1841.09 198.967 1840.74 199.9 1839.81 201.3C1839.11 202.467 1838.64 203.75 1838.41 205.15C1838.41 206.55 1837.94 207.483 1837.01 207.95C1835.84 208.417 1834.68 208.183 1833.51 207.25C1820.21 198.617 1804.46 190.8 1786.26 183.8C1768.29 176.8 1750.33 170.733 1732.36 165.6C1730.49 165.6 1728.74 165.95 1727.11 166.65C1725.48 167.35 1723.49 168.167 1721.16 169.1C1719.29 169.8 1716.73 170.617 1713.46 171.55C1710.43 172.483 1708.79 172.483 1708.56 171.55C1708.56 167.817 1709.61 164.433 1711.71 161.4C1713.81 158.367 1715.68 155.217 1717.31 151.95C1719.18 147.983 1720.34 145.417 1720.81 144.25C1721.51 143.083 1722.44 141.8 1723.61 140.4C1724.54 139.233 1725.59 137.833 1726.76 136.2C1728.16 134.333 1730.14 132.117 1732.71 129.55C1738.54 123.95 1743.44 118.7 1747.41 113.8C1751.61 108.667 1754.99 103.767 1757.56 99.1C1760.36 94.2 1762.69 89.4167 1764.56 84.75C1766.43 80.0833 1768.29 75.4167 1770.16 70.75C1754.99 71.2167 1741.34 72.5 1729.21 74.6C1717.08 76.4667 1704.59 79.0333 1691.76 82.3C1693.16 91.1667 1694.21 101.2 1694.91 112.4C1695.61 123.367 1696.19 134.683 1696.66 146.35C1697.36 158.017 1698.06 169.683 1698.76 181.35C1699.46 192.783 1700.74 203.4 1702.61 213.2C1703.78 216.467 1704.13 219.383 1703.66 221.95C1703.43 222.65 1703.31 223.233 1703.31 223.7C1703.31 224.167 1703.08 224.633 1702.61 225.1C1693.74 204.1 1687.33 181.467 1683.36 157.2C1679.63 132.7 1679.86 108.317 1684.06 84.05C1682.43 84.2833 1680.21 84.75 1677.41 85.45C1674.61 86.15 1671.58 86.9667 1668.31 87.9C1665.28 88.8333 1662.24 89.7667 1659.21 90.7C1656.41 91.6333 1653.96 92.3333 1651.86 92.8L1643.81 93.85C1643.11 91.75 1643.34 90.2333 1644.51 89.3C1645.44 88.1333 1646.14 86.7333 1646.61 85.1C1648.24 79.5 1651.63 75.3 1656.76 72.5C1658.86 71.3333 1660.61 69.9333 1662.01 68.3C1663.41 66.6667 1665.04 65.3833 1666.91 64.45C1673.21 61.8833 1680.33 59.6667 1688.26 57.8C1696.19 55.9333 1704.24 54.5333 1712.41 53.6C1720.81 52.4333 1729.09 51.9667 1737.26 52.2C1745.66 52.2 1753.59 53.0167 1761.06 54.65C1763.39 55.1167 1765.61 56.05 1767.71 57.45C1769.81 58.6167 1771.91 59.6667 1774.01 60.6L1779.61 64.1C1784.51 64.8 1786.61 66.9 1785.91 70.4ZM1971.5 70.4C1971.5 80.6667 1969.75 90.1167 1966.25 98.75C1964.62 103.183 1962.4 107.617 1959.6 112.05C1956.8 116.25 1953.65 120.45 1950.15 124.65C1946.89 128.617 1943.39 132.467 1939.65 136.2C1936.15 139.7 1932.89 142.967 1929.85 146C1936.85 148.1 1944.55 150.433 1952.95 153C1961.59 155.333 1970.1 158.133 1978.5 161.4C1986.9 164.667 1994.95 168.4 2002.65 172.6C2010.35 176.567 2017 181.117 2022.6 186.25C2024.24 187.65 2025.29 189.05 2025.75 190.45C2026.22 191.617 2026.45 193.133 2026.45 195C2026.45 196.867 2026.45 198.033 2026.45 198.5C2026.69 198.967 2026.34 199.9 2025.4 201.3C2024.7 202.467 2024.24 203.75 2024 205.15C2024 206.55 2023.54 207.483 2022.6 207.95C2021.44 208.417 2020.27 208.183 2019.1 207.25C2005.8 198.617 1990.05 190.8 1971.85 183.8C1953.89 176.8 1935.92 170.733 1917.95 165.6C1916.09 165.6 1914.34 165.95 1912.7 166.65C1911.07 167.35 1909.09 168.167 1906.75 169.1C1904.89 169.8 1902.32 170.617 1899.05 171.55C1896.02 172.483 1894.39 172.483 1894.15 171.55C1894.15 167.817 1895.2 164.433 1897.3 161.4C1899.4 158.367 1901.27 155.217 1902.9 151.95C1904.77 147.983 1905.94 145.417 1906.4 144.25C1907.1 143.083 1908.04 141.8 1909.2 140.4C1910.14 139.233 1911.19 137.833 1912.35 136.2C1913.75 134.333 1915.74 132.117 1918.3 129.55C1924.14 123.95 1929.04 118.7 1933 113.8C1937.2 108.667 1940.59 103.767 1943.15 99.1C1945.95 94.2 1948.29 89.4167 1950.15 84.75C1952.02 80.0833 1953.89 75.4167 1955.75 70.75C1940.59 71.2167 1926.94 72.5 1914.8 74.6C1902.67 76.4667 1890.19 79.0333 1877.35 82.3C1878.75 91.1667 1879.8 101.2 1880.5 112.4C1881.2 123.367 1881.79 134.683 1882.25 146.35C1882.95 158.017 1883.65 169.683 1884.35 181.35C1885.05 192.783 1886.34 203.4 1888.2 213.2C1889.37 216.467 1889.72 219.383 1889.25 221.95C1889.02 222.65 1888.9 223.233 1888.9 223.7C1888.9 224.167 1888.67 224.633 1888.2 225.1C1879.34 204.1 1872.92 181.467 1868.95 157.2C1865.22 132.7 1865.45 108.317 1869.65 84.05C1868.02 84.2833 1865.8 84.75 1863 85.45C1860.2 86.15 1857.17 86.9667 1853.9 87.9C1850.87 88.8333 1847.84 89.7667 1844.8 90.7C1842 91.6333 1839.55 92.3333 1837.45 92.8L1829.4 93.85C1828.7 91.75 1828.94 90.2333 1830.1 89.3C1831.04 88.1333 1831.74 86.7333 1832.2 85.1C1833.84 79.5 1837.22 75.3 1842.35 72.5C1844.45 71.3333 1846.2 69.9333 1847.6 68.3C1849 66.6667 1850.64 65.3833 1852.5 64.45C1858.8 61.8833 1865.92 59.6667 1873.85 57.8C1881.79 55.9333 1889.84 54.5333 1898 53.6C1906.4 52.4333 1914.69 51.9667 1922.85 52.2C1931.25 52.2 1939.19 53.0167 1946.65 54.65C1948.99 55.1167 1951.2 56.05 1953.3 57.45C1955.4 58.6167 1957.5 59.6667 1959.6 60.6L1965.2 64.1C1970.1 64.8 1972.2 66.9 1971.5 70.4ZM2180.9 139.35C2180.2 140.517 2179.15 141.333 2177.75 141.8C2176.58 142.033 2175.42 142.5 2174.25 143.2C2173.08 143.9 2171.92 144.833 2170.75 146C2169.58 147.167 2168.42 148.1 2167.25 148.8C2170.52 161.4 2173.08 172.367 2174.95 181.7C2176.82 191.033 2177.98 198.033 2178.45 202.7C2178.92 207.367 2179.27 212.5 2179.5 218.1C2179.73 223.7 2179.85 228.833 2179.85 233.5C2179.85 237 2179.62 239.8 2179.15 241.9C2178.92 244.233 2178.45 246.45 2177.75 248.55C2174.95 245.05 2172.62 241.317 2170.75 237.35C2169.12 233.383 2167.37 229.417 2165.5 225.45C2161.53 213.55 2157.68 201.067 2153.95 188C2150.45 174.933 2146.95 161.633 2143.45 148.1C2136.92 147.867 2129.92 147.75 2122.45 147.75C2114.98 147.75 2107.52 147.75 2100.05 147.75C2092.58 147.75 2085.47 147.867 2078.7 148.1C2072.17 148.1 2066.45 148.217 2061.55 148.45C2061.08 149.85 2060.62 151.483 2060.15 153.35C2058.75 156.383 2057.58 159.767 2056.65 163.5C2055.72 167 2054.9 170.85 2054.2 175.05C2053.5 179.017 2052.68 183.217 2051.75 187.65C2050.82 192.083 2049.65 196.517 2048.25 200.95C2051.28 200.95 2054.2 200.017 2057 198.15C2060.03 196.05 2063.07 195 2066.1 195C2064 197.1 2062.13 199.433 2060.5 202C2059.1 204.567 2057.82 207.95 2056.65 212.15C2056.42 213.317 2055.72 214.483 2054.55 215.65C2053.38 217.05 2052.57 218.1 2052.1 218.8C2051.63 219.733 2051.17 220.667 2050.7 221.6C2050.23 222.767 2049.65 223.583 2048.95 224.05C2047.32 224.983 2045.92 225.45 2044.75 225.45C2043.58 225.683 2042.77 225.45 2042.3 224.75C2040.43 221.95 2039.15 218.917 2038.45 215.65C2037.98 212.617 2037.52 209.35 2037.05 205.85C2037.05 199.55 2037.87 191.383 2039.5 181.35C2041.13 171.317 2043.23 160.583 2045.8 149.15C2043.93 148.683 2042.07 147.867 2040.2 146.7C2038.33 145.3 2036.7 144.367 2035.3 143.9C2032.73 142.733 2030.63 142.15 2029 142.15C2027.37 141.917 2025.62 140.983 2023.75 139.35L2045.1 133.75C2046.27 133.75 2047.78 133.517 2049.65 133.05C2052.45 122.083 2055.25 111.583 2058.05 101.55C2060.85 91.5167 2063.53 83 2066.1 76C2067.97 70.6333 2070.18 64.45 2072.75 57.45C2075.55 50.45 2078.7 43.8 2082.2 37.5C2085.93 30.9667 2090.02 25.3667 2094.45 20.7C2099.12 16.0333 2104.13 13.1167 2109.5 11.95C2111.13 11.4833 2112.77 11.1333 2114.4 10.9C2116.03 10.6667 2117.78 10.55 2119.65 10.55C2121.52 10.55 2122.92 11.4833 2123.85 13.35C2124.78 14.9833 2126.18 17.0833 2128.05 19.65C2129.22 21.75 2130.27 23.6167 2131.2 25.25C2132.37 26.65 2133.53 29.6833 2134.7 34.35C2140.3 51.3833 2145.55 68.5333 2150.45 85.8C2155.35 102.833 2159.67 118.933 2163.4 134.1L2184.75 138.65L2180.9 139.35ZM2109.5 27C2105.53 32.3667 2101.8 38.3167 2098.3 44.85C2094.8 51.15 2091.3 58.5 2087.8 66.9C2084.3 75.0667 2080.8 84.5167 2077.3 95.25C2073.8 105.75 2070.18 117.65 2066.45 130.95C2078.58 129.55 2090.72 128.733 2102.85 128.5C2114.98 128.267 2127 128.733 2138.9 129.9C2134 111 2129.22 92.6833 2124.55 74.95C2119.88 56.9833 2114.87 41 2109.5 27Z" fill="#512CF8"/>
</g>
<defs>
<clipPath id="clip0_325_3">
<rect width="2204" height="309" fill="white"/>
</clipPath>
</defs>
</svg>
